HIERARCHY
ROOT Hips
{
	OFFSET 0.000000 0.000000 0.000000 
	CHANNELS 6 Xposition Yposition Zposition Zrotation Yrotation Xrotation
	JOINT LeftUpLeg
	{
		OFFSET 0.000000 0.000000 0.000000 
		CHANNELS 3 Zrotation Yrotation Xrotation
		JOINT LeftLeg
		{
			OFFSET 3.811170 -8.520760 0.839290 
			CHANNELS 3 Zrotation Yrotation Xrotation
			JOINT LeftFoot
			{
				OFFSET 2.562200 -7.039590 0.000000 
				CHANNELS 3 Zrotation Yrotation Xrotation
				JOINT LeftToeBase
				{
					OFFSET 0.157640 -0.433110 2.322550 
					CHANNELS 3 Zrotation Yrotation Xrotation
					End Site
					{
						OFFSET 0.000000 0.000000 0.000000 
					}
				}
			}
		}
	}
	JOINT RigthUpLeg
	{
		OFFSET 0.000000 0.000000 0.000000 
		CHANNELS 3 Zrotation Yrotation Xrotation
		JOINT RightLeg
		{
			OFFSET -3.848050 -8.780180 0.839290 
			CHANNELS 3 Zrotation Yrotation Xrotation
			JOINT RightFoot
			{
				OFFSET -2.568260 -7.056230 0.000000 
				CHANNELS 3 Zrotation Yrotation Xrotation
				JOINT RightToeBase
				{
					OFFSET -0.164730 -0.452590 2.363150 
					CHANNELS 3 Zrotation Yrotation Xrotation
					End Site
					{
						OFFSET 0.000000 0.000000 0.000000 
					}
				}
			}
		}
	}
	JOINT Spine
	{
		OFFSET 0.028270 2.035590 -0.193380 
		CHANNELS 3 Zrotation Yrotation Xrotation
		JOINT Spine1
		{
			OFFSET 0.056720 2.048850 -0.042750 
			CHANNELS 3 Zrotation Yrotation Xrotation
			JOINT Neck1
			{
				OFFSET -0.054170 1.746240 0.172020 
				CHANNELS 3 Zrotation Yrotation Xrotation
				JOINT Head
				{
					OFFSET 0.104070 1.761360 -0.123970 
					CHANNELS 3 Zrotation Yrotation Xrotation
					End Site
					{
						OFFSET 0.000000 0.000000 0.000000 
					}
				}
			}
			JOINT LeftArm
			{
				OFFSET 3.362410 1.200890 -0.311210 
				CHANNELS 3 Zrotation Yrotation Xrotation
				JOINT LeftForeArm
				{
					OFFSET 4.983000 -0.000000 -0.000000 
					CHANNELS 3 Zrotation Yrotation Xrotation
					JOINT LeftHand
					{
						OFFSET 3.483560 -0.000000 -0.000000 
						CHANNELS 3 Zrotation Yrotation Xrotation
						JOINT LeftHandIndex1
						{
							OFFSET 0.715260 -0.000000 -0.000000 
							CHANNELS 3 Zrotation Yrotation Xrotation
							End Site
							{
								OFFSET 0.000000 0.000000 0.000000 
							}
						}
					}
				}
			}
			JOINT RightArm
			{
				OFFSET -3.136600 1.374050 -0.404650 
				CHANNELS 3 Zrotation Yrotation Xrotation
				JOINT RightForeArm
				{
					OFFSET -5.241900 -0.000000 -0.000000 
					CHANNELS 3 Zrotation Yrotation Xrotation
					JOINT RightHand
					{
						OFFSET -3.444170 -0.000000 -0.000000 
						CHANNELS 3 Zrotation Yrotation Xrotation
						JOINT RightHandIndex1
						{
							OFFSET -0.622530 -0.000000 -0.000000 
							CHANNELS 3 Zrotation Yrotation Xrotation
							End Site
							{
								OFFSET 0.000000 0.000000 0.000000 
							}
						}
					}
				}
			}
		}
	}
}
MOTION
Frames: 16
Frame Time: 0.008333
4.847296 15.567984 -2.364512 -5.013435 -25.555210 3.808602 -14.113628 24.014119 -28.423689 -9.577650 20.769375 16.601965 -1.138746 7.966140 -16.361758 3.403032 -3.672261 -4.660552 -2.248745 -4.569977 8.315193 22.178910 -25.301728 33.044202 -3.108765 3.457607 -18.670334 4.665498 -4.892294 3.916398 -1.187583 -4.790256 -4.810938 -0.251574 -5.092805 -12.797911 -2.988161 -2.681163 -1.586867 7.999299 -7.127697 8.096676 -38.852466 -40.946402 10.651218 72.997072 -67.195600 0.459399 6.375438 -0.938375 8.622219 -8.228459 -9.598032 -3.276425 96.345301 23.961661 44.575953 -89.052162 57.625676 6.562632 -6.713997 6.021421 -3.564364 -1.300224 3.563465 3.509852
4.832201 15.566452 -2.370173 -4.986884 -25.394220 3.820341 -6.301062 31.502937 -39.730478 1.370828 16.981568 25.981228 -4.419094 4.242963 -15.964708 0.074995 -6.990479 -6.845258 2.602609 -5.312409 3.643091 28.078706 -11.211125 30.584914 7.362105 5.562462 -1.228383 -5.864906 -6.357248 6.199199 2.345363 -5.486843 5.119693 6.570288 4.188985 -0.986171 -3.891015 0.540568 -7.103474 1.767259 1.115488 4.765985 -45.291273 -38.668452 3.573042 73.877210 -64.068753 0.375391 -4.025830 -5.557210 3.900842 6.132983 -4.013225 -7.430650 99.309471 34.475955 39.730618 -100.917762 66.007390 -7.747363 8.942193 3.552750 -5.705474 -3.753849 3.643332 2.596850
4.817107 15.564921 -2.375835 -4.960369 -25.233309 3.832239 0.317827 19.402058 -21.278153 -0.870128 12.534104 24.415288 2.552930 13.805785 -6.492578 -2.422799 -0.853514 5.563562 -4.943544 -22.986416 12.621402 34.547938 -7.370431 31.542581 -7.978955 2.273529 -16.662055 -6.869282 -7.145429 -9.092941 0.481849 -8.042600 -12.645849 -3.213645 6.018081 -7.875317 -7.832247 7.759408 8.704431 -9.842195 -5.071934 4.202430 -34.067725 -34.798594 6.119215 62.168738 -62.178132 9.446368 -7.998337 8.320901 -8.386121 -1.188890 -8.081137 0.409521 108.244968 21.904109 49.730572 -86.623537 64.505893 -7.803208 0.003124 -3.657180 6.586021 -1.329120 9.761156 3.057228
4.802012 15.563389 -2.381496 -4.933893 -25.072481 3.844295 -5.711306 31.739739 -34.460633 -15.420932 10.186954 13.904874 0.133683 -2.112501 -8.779915 -4.824367 -6.406088 1.757961 4.624239 -16.545460 -3.243790 28.108798 -22.514855 33.037860 3.673813 -10.845244 -7.437894 -9.204787 2.188122 5.254091 -5.040716 -5.467073 4.412604 -0.501004 -3.126968 -2.725478 2.712525 -1.719556 -5.675997 -5.706192 7.316948 7.548524 -31.621918 -28.983715 -1.224143 63.788098 -70.136444 1.714142 -7.874053 -7.640491 0.055068 -5.751647 -7.780910 4.005649 89.998311 30.190465 40.872209 -89.291426 64.585108 -7.895465 4.818943 4.378049 2.152355 6.692928 5.998721 -7.483969
4.786918 15.561857 -2.387158 -4.907456 -24.911741 3.856510 -1.646587 26.163314 -27.493631 -1.403097 10.765660 26.911680 -10.780568 0.536822 -10.573891 6.804764 2.663825 4.098335 -8.364165 -20.147914 12.935517 32.253732 -19.644083 33.805742 -1.042287 -2.355416 -17.901611 -2.391045 3.442301 -8.761801 -3.630112 4.910370 -6.631716 8.019660 0.375036 -7.845549 5.207589 8.532852 -8.998465 7.205369 -4.992193 3.263972 -33.685930 -37.576067 11.760762 80.738025 -70.748833 -3.983127 -5.291237 -0.015826 -0.410425 -7.240620 1.304958 7.384037 98.613362 32.570425 32.838491 -82.245398 70.289432 8.456933 3.481294 -8.508407 -8.406605 -5.626398 -7.993915 -9.137029
4.771644 15.560423 -2.392403 -4.886722 -24.730591 3.870037 -6.069760 26.789783 -24.037968 -10.851707 7.198759 28.300699 5.308432 7.164894 -8.704572 4.979306 0.184050 8.170813 1.486078 -19.104362 8.865404 35.959752 -14.714986 19.314524 10.896636 -2.482462 -10.751676 1.975601 -4.953559 -5.128027 9.008511 10.571057 2.883117 -10.572656 2.964071 -10.534236 -5.861932 -3.206908 9.896737 6.224450 -7.457512 4.961955 -35.750152 -39.669400 6.878852 77.303464 -59.438238 0.786517 -2.707853 -8.784530 -4.360424 -6.340324 1.805082 -4.475155 92.396768 27.840731 42.450137 -93.221624 74.810045 -9.077954 6.994602 -1.734198 6.794941 -3.067912 3.302545 4.621641
4.756367 15.558990 -2.397638 -4.866138 -24.549143 3.883723 -0.696734 27.936171 -21.077061 -0.800209 20.882268 22.943275 -9.659397 5.325528 -17.617631 3.673931 3.810083 -9.301968 -13.119745 -14.533082 2.231241 30.408793 -10.908800 22.899516 -2.600690 6.757202 -5.134117 1.533202 9.050734 -4.246648 6.279104 11.375833 1.016802 4.037437 -9.373529 -7.903952 -7.985486 -2.305086 1.286940 -4.077137 7.926674 2.679213 -40.633297 -35.291021 -2.049288 78.697135 -69.733153 3.214272 -9.977345 2.663425 -4.979817 -0.724848 -2.715909 -7.608956 98.642673 26.626269 30.677261 -93.510798 57.225119 -1.716920 8.753794 -5.627200 -9.559916 -4.059139 -6.233413 -8.414876
4.741089 15.557558 -2.402874 -4.845577 -24.367853 3.897542 -14.070374 21.959432 -36.081848 -2.460173 7.443186 16.372670 -7.411901 1.029928 -6.347964 4.871062 -9.037266 -1.685638 -3.267310 -7.497887 10.059265 26.026035 -9.090647 31.236312 5.467700 5.321600 -9.804576 5.990070 -7.158005 -8.570122 -3.432092 5.758841 -11.144395 -9.121469 1.415228 -3.790583 -4.917099 4.890063 -3.114466 3.698595 -5.268257 -3.161452 -41.675754 -26.295839 5.332827 69.277975 -55.015526 3.482358 6.806617 5.423663 8.834658 -5.718041 -7.772180 9.704568 103.074712 36.766283 41.447754 -87.738694 61.677343 9.009931 1.105306 4.546352 3.460820 3.034796 8.164709 7.221478
4.725811 15.556126 -2.408110 -4.825040 -24.186731 3.911492 -2.029771 26.127664 -33.013020 -0.054592 19.860029 19.390814 -0.543366 -1.856972 -16.562425 9.594656 2.071168 9.955183 -6.225423 -24.185997 8.864713 28.503739 -10.541156 31.625819 -8.370230 -6.659434 -12.896158 -6.426959 1.345213 -1.691207 0.524667 1.171879 1.972873 4.741707 -6.512471 -13.168118 2.350385 2.304687 5.424157 -2.997358 -5.322216 1.177888 -33.296259 -35.844100 10.342431 67.059689 -56.865927 -4.178877 -0.725577 -9.907695 -1.887306 8.630573 7.921272 -6.751714 98.831317 25.328035 43.928261 -93.023176 68.251573 -7.630271 -0.011006 -2.497420 5.657572 -5.019688 9.053991 -6.568643
4.710500 15.554724 -2.412900 -4.809207 -23.982445 3.924997 -3.904541 25.809954 -27.879745 -0.773484 12.386471 24.007749 5.539986 -2.346413 -23.806214 -3.739355 -2.882552 -6.703395 4.096973 -7.134699 3.786218 23.192787 -18.822365 23.403156 10.019660 -8.585380 -9.119188 4.483059 -0.436530 6.711059 5.689462 4.385484 0.008911 0.672006 3.405513 -15.951794 -0.030480 -3.108895 -8.542977 -9.189106 -7.758998 -2.148353 -31.026520 -38.730730 4.085606 72.107073 -72.483774 5.572925 8.831865 -1.164479 0.088826 -0.647360 -3.724974 5.133186 96.528542 25.038236 41.021841 -96.392607 73.443497 -9.710518 -3.624457 5.437204 -1.392007 8.052536 -9.757712 7.405278
4.695186 15.553324 -2.417671 -4.793570 -23.777342 3.938570 -6.928630 25.672073 -36.823960 -16.767504 23.288673 30.283846 -2.688183 -3.934799 -19.339618 5.968285 7.090915 -0.190208 -4.406504 -14.394146 13.412482 30.718787 -26.840805 21.403871 2.678082 -1.803135 -16.865945 -5.084570 -7.074750 -3.474989 -4.863069 -5.725297 -1.090262 2.832944 3.262282 -5.866926 -6.668953 -3.193404 -3.008488 -9.752609 -3.908268 -8.307438 -47.431948 -35.271147 13.733391 65.631595 -57.807458 -2.371272 -9.209768 5.887024 4.389894 4.129139 2.257494 -2.131640 104.571313 23.387049 43.131863 -87.951135 75.286682 -8.807820 7.935634 9.500552 -6.434318 -6.909016 4.605462 -1.710837
4.679873 15.551923 -2.422441 -4.777918 -23.572485 3.952232 2.787206 22.557340 -22.419935 -17.233935 8.450193 18.614223 1.176911 -3.267611 -19.505268 3.002503 -0.434566 2.293667 -4.088221 -8.612015 14.203206 26.439918 -10.676033 28.411860 -7.679262 -3.474293 -3.206930 8.401103 -5.405714 2.041034 -3.573683 2.646301 4.569301 -5.767528 1.293974 -8.068145 7.377562 7.630403 -8.735760 -1.928881 2.318494 -8.745874 -49.881037 -37.588082 5.776878 66.191899 -63.069866 1.059556 2.214805 4.565917 -9.243108 -4.790553 7.414683 9.419008 88.341575 18.601033 45.410289 -95.785400 65.326158 -1.955674 8.559079 9.646787 9.375127 -2.276694 -0.345827 9.629136
4.664560 15.550523 -2.427211 -4.762252 -23.367880 3.965985 -4.842829 31.454430 -39.238936 1.555806 10.973115 20.209303 3.224589 5.868818 -7.702759 3.865319 -1.422772 -3.364369 -11.316833 -9.738860 14.389658 37.629464 -10.548909 18.747249 -0.138242 -10.436358 -20.927746 -3.698151 4.775460 7.718201 -7.439998 -8.062245 -7.634526 0.728780 -5.692766 -17.436967 3.873840 5.411942 -8.734981 -4.516202 -6.573907 0.027000 -42.018836 -24.787673 4.046972 73.311551 -68.394153 3.444667 6.078440 -1.128276 5.483527 -4.013041 0.754140 -4.447779 92.099943 21.005429 36.558821 -88.760684 60.677149 0.236076 5.923381 9.715374 -1.199658 1.026108 -2.003427 7.185865
4.649451 15.549089 -2.431353 -4.746350 -23.141703 3.978118 -15.003602 25.978525 -22.247078 -11.873033 20.789625 13.820166 -2.361809 8.525312 -5.194718 -1.392314 -9.841373 -4.313751 -8.481429 -5.786773 8.450145 27.497536 -10.917441 25.840475 8.895129 7.766259 -3.111562 -4.724250 9.371834 -3.866305 -9.450532 7.359422 -1.545566 4.525770 8.724390 -4.310253 -5.705422 1.236967 -7.926545 4.319154 -7.112271 5.348216 -39.497264 -24.720579 8.790044 76.437937 -56.252539 -2.369884 -6.938271 -6.582633 3.332969 1.337540 -1.243800 -0.923030 96.874588 28.868726 47.001877 -92.279923 69.865411 -3.489480 7.328650 2.879891 -6.989595 9.971391 -5.370669 0.333838
4.634356 15.547652 -2.435450 -4.730384 -22.914324 3.990155 -15.047495 12.776346 -22.898861 -9.357031 14.299350 18.995100 5.064453 5.242000 -19.697867 -9.019380 -6.655801 -6.892405 -10.775408 -19.060593 3.734667 27.245138 -14.515122 18.352155 10.217402 -7.530600 -19.323257 4.986105 -0.900232 -3.433870 1.612177 11.572846 -2.616317 -9.311907 -1.727588 -11.525445 6.557946 8.982081 2.464130 -1.338728 -5.770477 -9.243999 -43.102887 -32.804056 -2.377324 69.603376 -64.434993 -9.096384 -7.906645 -2.882087 8.454489 6.832159 -3.690344 1.072240 90.027602 19.231299 32.265063 -96.301525 63.773725 8.284659 1.490804 9.304984 -2.981558 9.308576 -1.241726 0.853985
4.619262 15.546216 -2.439548 -4.714370 -22.687262 4.002211 -2.658889 20.792865 -22.401814 -10.498444 19.084037 16.982671 -5.305698 -2.156314 -21.660073 1.571169 -6.045028 -1.301339 -1.575265 -19.102425 -1.761990 32.675169 -20.803690 32.701723 -4.762189 3.469890 -16.679407 4.896722 7.698462 2.559624 5.596063 4.560798 -3.168995 3.484616 1.313027 -3.745237 0.374859 -2.587918 -8.906061 -2.181829 4.215598 -2.080123 -49.505101 -28.161376 1.267395 79.390831 -68.397312 6.683065 -6.774824 -6.181301 -4.925830 2.450228 -3.939239 7.830227 91.378811 33.770108 35.605142 -83.083562 64.073083 -3.655739 5.131202 9.215654 -7.809035 -4.229270 5.929292 -5.869391
